<?xml version="1.0" encoding="utf-8"?>
<!-- Generator: Adobe Illustrator 19.0.0, SVG Export Plug-In . SVG Version: 6.00 Build 0)  -->
<!DOCTYPE svg PUBLIC "-//W3C//DTD SVG 1.1//EN" "http://www.w3.org/Graphics/SVG/1.1/DTD/svg11.dtd">
<svg version="1.1" id="Layer_1" xmlns="http://www.w3.org/2000/svg" xmlns:xlink="http://www.w3.org/1999/xlink" x="0px" y="0px"
	 viewBox="127 -127.1 295.5 296.1" enable-background="new 127 -127.1 295.5 296.1" xml:space="preserve">
<circle id="XMLID_30_" fill="#FFF3E1" cx="274.8" cy="20.9" r="134"/>
<g>
	<defs>
		<circle id="SVGID_1_" cx="275" cy="20.9" r="134"/>
	</defs>
	<clipPath id="SVGID_2_">
		<use xlink:href="#SVGID_1_"  overflow="visible"/>
	</clipPath>
	<g clip-path="url(#SVGID_2_)">
		<path fill="#FFE9C5" d="M302.7-50.1c2.1-0.9,4.5-0.9,6.9-0.8c-2.6-0.9-5.3-0.2-7.6,1.2c0,0,0,0,0,0
			C302.2-49.9,302.4-50,302.7-50.1z"/>
		<path fill="#FFE9C5" d="M302.2-50.6c2.1-0.9,4.5-0.9,6.9-0.8c-2.6-0.9-5.3-0.2-7.6,1.2c0,0,0,0,0,0
			C301.7-50.4,301.9-50.5,302.2-50.6z"/>
		<path fill="#FFE9C5" d="M301.2-51.6c2.1-0.9,4.5-0.9,6.9-0.8c-2.6-0.9-5.3-0.2-7.6,1.2c0,0,0,0,0,0
			C300.7-51.4,300.9-51.5,301.2-51.6z"/>
		<path fill="#FFE9C5" d="M300.7-52.1c2.1-0.9,4.5-0.9,6.9-0.8c-2.6-0.9-5.3-0.2-7.6,1.2c0,0,0,0,0,0
			C300.2-51.9,300.4-52,300.7-52.1z"/>
		<path fill="#FFE9C5" d="M306.2-46.6c2.1-0.9,4.5-0.9,6.9-0.8c-2.6-0.9-5.3-0.2-7.6,1.2c0,0,0,0,0,0
			C305.7-46.4,305.9-46.5,306.2-46.6z"/>
		<path fill="#FFE9C5" d="M304.7-48.1c2.1-0.9,4.5-0.9,6.9-0.8c-2.6-0.9-5.3-0.2-7.6,1.2c0,0,0,0,0,0
			C304.2-47.9,304.4-48,304.7-48.1z"/>
		<path fill="#FFE9C5" d="M299.7-53.1c2.1-0.9,4.5-0.9,6.9-0.8c-2.6-0.9-5.3-0.2-7.6,1.2c0,0,0,0,0,0
			C299.2-52.9,299.4-53,299.7-53.1z"/>
		<path fill="#FFE9C5" d="M305.2-47.6c2.1-0.9,4.5-0.9,6.9-0.8c-2.6-0.9-5.3-0.2-7.6,1.2c0,0,0,0,0,0
			C304.7-47.4,304.9-47.5,305.2-47.6z"/>
		<path fill="#FFE9C5" d="M305.7-47.1c2.1-0.9,4.5-0.9,6.9-0.8c-2.6-0.9-5.3-0.2-7.6,1.2c0,0,0,0,0,0
			C305.2-46.9,305.4-47,305.7-47.1z"/>
		<path fill="#FFE9C5" d="M304.2-48.6c2.1-0.9,4.5-0.9,6.9-0.8c-2.6-0.9-5.3-0.2-7.6,1.2c0,0,0,0,0,0
			C303.7-48.4,303.9-48.5,304.2-48.6z"/>
		<path fill="#FFE9C5" d="M303.2-49.6c2.1-0.9,4.5-0.9,6.9-0.8c-2.6-0.9-5.3-0.2-7.6,1.2c0,0,0,0,0,0
			C302.7-49.4,302.9-49.5,303.2-49.6z"/>
		<path fill="#FFE9C5" d="M303.7-49.1c2.1-0.9,4.5-0.9,6.9-0.8c-2.6-0.9-5.3-0.2-7.6,1.2c0,0,0,0,0,0
			C303.2-48.9,303.4-49,303.7-49.1z"/>
		<path fill="#FFE9C5" d="M300.2-52.6c2.1-0.9,4.5-0.9,6.9-0.8c-2.6-0.9-5.3-0.2-7.6,1.2c0,0,0,0,0,0
			C299.7-52.4,299.9-52.5,300.2-52.6z"/>
		<path fill="#FFE9C5" d="M294.2-58.6c2.1-0.9,4.5-0.9,6.9-0.8c-2.6-0.9-5.3-0.2-7.6,1.2c0,0,0,0,0,0
			C293.7-58.4,293.9-58.5,294.2-58.6z"/>
		<path fill="#FFE9C5" d="M295.7-57.1c2.1-0.9,4.5-0.9,6.9-0.8c-2.6-0.9-5.3-0.2-7.6,1.2c0,0,0,0,0,0
			C295.2-56.9,295.4-57,295.7-57.1z"/>
		<path fill="#FFE9C5" d="M295.2-57.6c2.1-0.9,4.5-0.9,6.9-0.8c-2.6-0.9-5.3-0.2-7.6,1.2c0,0,0,0,0,0
			C294.7-57.4,294.9-57.5,295.2-57.6z"/>
		<path fill="#FFE9C5" d="M294.7-58.1c2.1-0.9,4.5-0.9,6.9-0.8c-2.6-0.9-5.3-0.2-7.6,1.2c0,0,0,0,0,0
			C294.2-57.9,294.4-58,294.7-58.1z"/>
		<path fill="#FFE9C5" d="M293.2-59.6c2.1-0.9,4.5-0.9,6.9-0.8c-2.6-0.9-5.3-0.2-7.6,1.2c0,0,0,0,0,0
			C292.7-59.4,292.9-59.5,293.2-59.6z"/>
		<path fill="#FFE9C5" d="M293.7-59.1c2.1-0.9,4.5-0.9,6.9-0.8c-2.6-0.9-5.3-0.2-7.6,1.2c0,0,0,0,0,0
			C293.2-58.9,293.4-59,293.7-59.1z"/>
		<path fill="#FFE9C5" d="M296.2-56.6c2.1-0.9,4.5-0.9,6.9-0.8c-2.6-0.9-5.3-0.2-7.6,1.2c0,0,0,0,0,0
			C295.7-56.4,295.9-56.5,296.2-56.6z"/>
		<path fill="#FFE9C5" d="M298.2-54.6c2.1-0.9,4.5-0.9,6.9-0.8c-2.6-0.9-5.3-0.2-7.6,1.2c0,0,0,0,0,0
			C297.7-54.4,297.9-54.5,298.2-54.6z"/>
		<path fill="#FFE9C5" d="M298.7-54.1c2.1-0.9,4.5-0.9,6.9-0.8c-2.6-0.9-5.3-0.2-7.6,1.2c0,0,0,0,0,0
			C298.2-53.9,298.4-54,298.7-54.1z"/>
		<path fill="#FFE9C5" d="M297.7-55.1c2.1-0.9,4.5-0.9,6.9-0.8c-2.6-0.9-5.3-0.2-7.6,1.2c0,0,0,0,0,0
			C297.2-54.9,297.4-55,297.7-55.1z"/>
		<path fill="#FFE9C5" d="M297.2-55.6c2.1-0.9,4.5-0.9,6.9-0.8c-2.6-0.9-5.3-0.2-7.6,1.2c0,0,0,0,0,0
			C296.7-55.4,296.9-55.5,297.2-55.6z"/>
		<path fill="#FFE9C5" d="M296.7-56.1c2.1-0.9,4.5-0.9,6.9-0.8c-2.6-0.9-5.3-0.2-7.6,1.2c0,0,0,0,0,0
			C296.2-55.9,296.4-56,296.7-56.1z"/>
		<path fill="#FFE9C5" d="M299.2-53.6c2.1-0.9,4.5-0.9,6.9-0.8c-2.6-0.9-5.3-0.2-7.6,1.2c0,0,0,0,0,0
			C298.7-53.4,298.9-53.5,299.2-53.6z"/>
		<path fill="#FFE9C5" d="M301.7-51.1c2.1-0.9,4.5-0.9,6.9-0.8c-2.6-0.9-5.3-0.2-7.6,1.2c0,0,0,0,0,0
			C301.2-50.9,301.4-51,301.7-51.1z"/>
		<path fill="#FFE9C5" d="M322.1-38.4c-1.8-0.6-3.7-0.5-5.4,0.1c0.1,0,0.2,0.1,0.3,0.1C318.6-38.5,320.4-38.5,322.1-38.4z"/>
		<path fill="#FFE9C5" d="M323.6-36.9c-1.3-0.4-2.6-0.5-3.9-0.3c0.2,0.1,0.4,0.2,0.7,0.3C321.4-37,322.5-36.9,323.6-36.9z"/>
		<path fill="#FFE9C5" d="M323.1-37.4c-1.4-0.5-3-0.5-4.4-0.1c0.2,0.1,0.4,0.1,0.6,0.2C320.5-37.5,321.8-37.5,323.1-37.4z"/>
		<path fill="#FFE9C5" d="M322.6-37.9c-1.6-0.5-3.3-0.5-4.9,0c0.1,0,0.3,0.1,0.4,0.2C319.6-38,321.1-38,322.6-37.9z"/>
		<path fill="#FFE9C5" d="M321.1-39.4c-2.1-0.7-4.4-0.4-6.4,0.5c0,0,0.1,0,0.1,0C316.8-39.5,318.9-39.5,321.1-39.4z"/>
		<path fill="#FFE9C5" d="M321.6-38.9c-2-0.7-4-0.4-5.9,0.3c0.1,0,0.1,0,0.2,0.1C317.7-39,319.6-39,321.6-38.9z"/>
		<path fill="#FFE9C5" d="M325.6-34.9c-0.5-0.2-1-0.3-1.5-0.3c0.2,0.1,0.4,0.2,0.6,0.3C325-34.9,325.3-34.9,325.6-34.9z"/>
		<path fill="#FFE9C5" d="M320.6-39.9c-2.3-0.8-4.7-0.3-6.9,0.8c0,0,0,0,0.1,0C315.9-40,318.2-40,320.6-39.9z"/>
		<path fill="#FFE9C5" d="M326.1-34.4c-0.3-0.1-0.5-0.1-0.8-0.2c0.1,0.1,0.3,0.1,0.4,0.2C325.8-34.4,326-34.4,326.1-34.4z"/>
		<path fill="#FFE9C5" d="M306.7-46.1c2.1-0.9,4.5-0.9,6.9-0.8c-2.6-0.9-5.3-0.2-7.6,1.2c0,0,0,0,0,0
			C306.2-45.9,306.4-46,306.7-46.1z"/>
		<path fill="#FFE9C5" d="M324.1-36.4c-1.1-0.4-2.2-0.4-3.3-0.3c0.2,0.1,0.5,0.2,0.7,0.3C322.3-36.5,323.2-36.4,324.1-36.4z"/>
		<path fill="#FFE9C5" d="M325.1-35.4c-0.7-0.2-1.4-0.3-2.1-0.4c0.2,0.1,0.4,0.2,0.7,0.3C324.1-35.4,324.6-35.4,325.1-35.4z"/>
		<path fill="#FFE9C5" d="M324.6-35.9c-0.9-0.3-1.8-0.4-2.8-0.4c0.3,0.1,0.5,0.2,0.8,0.3C323.3-35.9,323.9-35.9,324.6-35.9z"/>
		<path fill="#FFE9C5" d="M440.1,76.2c-0.2-0.2-0.3-0.3-0.5-0.5c-0.2-0.2-0.3-0.3-0.5-0.5c-0.2-0.2-0.3-0.3-0.5-0.5
			c-0.2-0.2-0.3-0.3-0.5-0.5c-0.2-0.2-0.3-0.3-0.5-0.5c-0.2-0.2-0.3-0.3-0.5-0.5c-0.2-0.2-0.3-0.3-0.5-0.5c-0.2-0.2-0.3-0.3-0.5-0.5
			c-0.2-0.2-0.3-0.3-0.5-0.5c-0.2-0.2-0.3-0.3-0.5-0.5c-0.2-0.2-0.3-0.3-0.5-0.5c-0.2-0.2-0.3-0.3-0.5-0.5c-0.2-0.2-0.3-0.3-0.5-0.5
			c-0.2-0.2-0.3-0.3-0.5-0.5c-0.2-0.2-0.3-0.3-0.5-0.5c-0.2-0.2-0.3-0.3-0.5-0.5c-0.2-0.2-0.3-0.3-0.5-0.5c-0.2-0.2-0.3-0.3-0.5-0.5
			c-0.2-0.2-0.3-0.3-0.5-0.5c-0.2-0.2-0.3-0.3-0.5-0.5c-0.2-0.2-0.3-0.3-0.5-0.5c-0.2-0.2-0.3-0.3-0.5-0.5c-0.2-0.2-0.3-0.3-0.5-0.5
			c-0.2-0.2-0.3-0.3-0.5-0.5c-0.2-0.2-0.3-0.3-0.5-0.5c-0.2-0.2-0.3-0.3-0.5-0.5c-0.2-0.2-0.3-0.3-0.5-0.5c-0.2-0.2-0.3-0.3-0.5-0.5
			c-0.2-0.2-0.3-0.3-0.5-0.5c-0.2-0.2-0.3-0.3-0.5-0.5c-0.2-0.2-0.3-0.3-0.5-0.5c-0.2-0.2-0.3-0.3-0.5-0.5c-0.2-0.2-0.3-0.3-0.5-0.5
			c-0.2-0.2-0.3-0.3-0.5-0.5c-0.2-0.2-0.3-0.3-0.5-0.5c-0.2-0.2-0.3-0.3-0.5-0.5c-0.2-0.2-0.3-0.3-0.5-0.5c-0.2-0.2-0.3-0.3-0.5-0.5
			c-0.2-0.2-0.3-0.3-0.5-0.5c-0.2-0.2-0.3-0.3-0.5-0.5c-0.2-0.2-0.3-0.3-0.5-0.5c-0.2-0.2-0.3-0.3-0.5-0.5c-0.2-0.2-0.3-0.3-0.5-0.5
			c-0.2-0.2-0.3-0.3-0.5-0.5c-0.2-0.2-0.3-0.3-0.5-0.5c-0.2-0.2-0.3-0.3-0.5-0.5c-0.2-0.2-0.3-0.3-0.5-0.5c-0.2-0.2-0.3-0.3-0.5-0.5
			c-0.2-0.2-0.3-0.3-0.5-0.5c-0.2-0.2-0.3-0.3-0.5-0.5c-0.2-0.2-0.3-0.3-0.5-0.5c-0.2-0.2-0.3-0.3-0.5-0.5c-0.2-0.2-0.3-0.3-0.5-0.5
			c-0.2-0.2-0.3-0.3-0.5-0.5c-0.2-0.2-0.3-0.3-0.5-0.5c-0.2-0.2-0.3-0.3-0.5-0.5c-0.2-0.2-0.3-0.3-0.5-0.5c-0.2-0.2-0.3-0.3-0.5-0.5
			c-0.2-0.2-0.3-0.3-0.5-0.5c-0.2-0.2-0.3-0.3-0.5-0.5c-0.2-0.2-0.3-0.3-0.5-0.5c-0.2-0.2-0.3-0.3-0.5-0.5c-0.2-0.2-0.3-0.3-0.5-0.5
			c-0.2-0.2-0.3-0.3-0.5-0.5c-0.2-0.2-0.3-0.3-0.5-0.5c-0.2-0.2-0.3-0.3-0.5-0.5c-0.2-0.2-0.3-0.3-0.5-0.5c-0.2-0.2-0.3-0.3-0.5-0.5
			c-0.2-0.2-0.3-0.3-0.5-0.5c-0.2-0.2-0.3-0.3-0.5-0.5c-0.2-0.2-0.3-0.3-0.5-0.5c-0.2-0.2-0.3-0.3-0.5-0.5c-0.2-0.2-0.3-0.3-0.5-0.5
			c-0.2-0.2-0.3-0.3-0.5-0.5c-0.2-0.2-0.3-0.3-0.5-0.5c-0.2-0.2-0.3-0.3-0.5-0.5c-0.2-0.2-0.3-0.3-0.5-0.5c-0.2-0.2-0.3-0.3-0.5-0.5
			c-0.2-0.2-0.3-0.3-0.5-0.5c-0.2-0.2-0.3-0.3-0.5-0.5c-0.2-0.2-0.3-0.3-0.5-0.5c-0.2-0.2-0.3-0.3-0.5-0.5c-0.2-0.2-0.3-0.3-0.5-0.5
			c-0.2-0.2-0.3-0.3-0.5-0.5c-0.2-0.2-0.3-0.3-0.5-0.5c-0.2-0.2-0.3-0.3-0.5-0.5c-0.2-0.2-0.3-0.3-0.5-0.5c-0.2-0.2-0.3-0.3-0.5-0.5
			c-0.2-0.2-0.3-0.3-0.5-0.5c-0.2-0.2-0.3-0.3-0.5-0.5c-0.2-0.2-0.3-0.3-0.5-0.5c-0.2-0.2-0.3-0.3-0.5-0.5c-0.2-0.2-0.3-0.3-0.5-0.5
			c-0.2-0.2-0.3-0.3-0.5-0.5c-0.2-0.2-0.3-0.3-0.5-0.5c-0.2-0.2-0.3-0.3-0.5-0.5c-0.2-0.2-0.3-0.3-0.5-0.5c-0.2-0.2-0.3-0.3-0.5-0.5
			c-0.2-0.2-0.3-0.3-0.5-0.5c-0.2-0.2-0.3-0.3-0.5-0.5c-0.2-0.2-0.3-0.3-0.5-0.5c-0.2-0.2-0.3-0.3-0.5-0.5c-0.2-0.2-0.3-0.3-0.5-0.5
			c-0.2-0.2-0.3-0.3-0.5-0.5c-0.2-0.2-0.3-0.3-0.5-0.5c-0.2-0.2-0.3-0.3-0.5-0.5c-0.2-0.2-0.3-0.3-0.5-0.5c-0.2-0.2-0.3-0.3-0.5-0.5
			c-0.2-0.2-0.3-0.3-0.5-0.5c-0.2-0.2-0.3-0.3-0.5-0.5c-0.2-0.2-0.3-0.3-0.5-0.5c-0.2-0.2-0.3-0.3-0.5-0.5c-0.2-0.2-0.3-0.3-0.5-0.5
			c-0.2-0.2-0.3-0.3-0.5-0.5c-0.2-0.2-0.3-0.3-0.5-0.5c-0.2-0.2-0.3-0.3-0.5-0.5c-0.2-0.2-0.3-0.3-0.5-0.5c-0.2-0.2-0.3-0.3-0.5-0.5
			c-0.2-0.2-0.3-0.3-0.5-0.5c-0.2-0.2-0.3-0.3-0.5-0.5c-0.2-0.2-0.3-0.3-0.5-0.5c-0.2-0.2-0.3-0.3-0.5-0.5c-0.2-0.2-0.3-0.3-0.5-0.5
			c-0.2-0.2-0.3-0.3-0.5-0.5c-0.2-0.2-0.3-0.3-0.5-0.5c-0.2-0.2-0.3-0.3-0.5-0.5c-0.2-0.2-0.3-0.3-0.5-0.5c-0.2-0.2-0.3-0.3-0.5-0.5
			c-0.2-0.2-0.3-0.3-0.5-0.5c-0.2-0.2-0.3-0.3-0.5-0.5c-0.2-0.2-0.3-0.3-0.5-0.5c-0.2-0.2-0.3-0.3-0.5-0.5c-0.2-0.2-0.3-0.3-0.5-0.5
			c-0.2-0.2-0.3-0.3-0.5-0.5c-0.2-0.2-0.3-0.3-0.5-0.5c-0.2-0.2-0.3-0.3-0.5-0.5c-0.2-0.2-0.3-0.3-0.5-0.5c-0.2-0.2-0.3-0.3-0.5-0.5
			c-0.2-0.2-0.3-0.3-0.5-0.5c-0.2-0.2-0.3-0.3-0.5-0.5c-0.2-0.2-0.3-0.3-0.5-0.5c-0.2-0.2-0.3-0.3-0.5-0.5c-0.2-0.2-0.3-0.3-0.5-0.5
			c-0.2-0.2-0.3-0.3-0.5-0.5c-0.2-0.2-0.3-0.3-0.5-0.5c-0.2-0.2-0.3-0.3-0.5-0.5c-0.2-0.2-0.3-0.3-0.5-0.5c-0.2-0.2-0.3-0.3-0.5-0.5
			c-0.2-0.2-0.3-0.3-0.5-0.5c-0.2-0.2-0.3-0.3-0.5-0.5c-0.2-0.2-0.3-0.3-0.5-0.5c-0.2-0.2-0.3-0.3-0.5-0.5c-0.2-0.2-0.3-0.3-0.5-0.5
			c-0.2-0.2-0.3-0.3-0.5-0.5c-0.2-0.2-0.3-0.3-0.5-0.5c-0.2-0.2-0.3-0.3-0.5-0.5c-0.2-0.2-0.3-0.3-0.5-0.5c-0.2-0.2-0.3-0.3-0.5-0.5
			c-0.2-0.2-0.3-0.3-0.5-0.5c-0.2-0.2-0.3-0.3-0.5-0.5c-0.2-0.2-0.3-0.3-0.5-0.5c-0.2-0.2-0.3-0.3-0.5-0.5c-0.2-0.2-0.3-0.3-0.5-0.5
			c-0.2-0.2-0.3-0.3-0.5-0.5c-0.2-0.2-0.3-0.3-0.5-0.5c-0.2-0.2-0.3-0.3-0.5-0.5c-0.2-0.2-0.3-0.3-0.5-0.5c-0.2-0.2-0.3-0.3-0.5-0.5
			c-0.2-0.2-0.3-0.3-0.5-0.5c-0.2-0.2-0.3-0.3-0.5-0.5c-0.2-0.2-0.3-0.3-0.5-0.5c-0.2-0.2-0.3-0.3-0.5-0.5c-0.2-0.2-0.3-0.3-0.5-0.5
			c-0.2-0.2-0.3-0.3-0.5-0.5c-0.2-0.2-0.3-0.3-0.5-0.5c-0.2-0.2-0.3-0.3-0.5-0.5c-0.2-0.2-0.3-0.3-0.5-0.5c-0.2-0.2-0.3-0.3-0.5-0.5
			c-0.2-0.2-0.3-0.3-0.5-0.5c-0.2-0.2-0.3-0.3-0.5-0.5c-0.2-0.2-0.3-0.3-0.5-0.5c-0.2-0.2-0.3-0.3-0.5-0.5c-0.2-0.2-0.3-0.3-0.5-0.5
			c-0.2-0.2-0.3-0.3-0.5-0.5c-0.2-0.2-0.3-0.3-0.5-0.5c-0.2-0.2-0.3-0.3-0.5-0.5c-0.2-0.2-0.3-0.3-0.5-0.5c-0.2-0.2-0.3-0.3-0.5-0.5
			c-0.2-0.2-0.3-0.3-0.5-0.5c-0.2-0.2-0.3-0.3-0.5-0.5c-0.2-0.2-0.3-0.3-0.5-0.5c-0.2-0.2-0.3-0.3-0.5-0.5c-0.2-0.2-0.3-0.3-0.5-0.5
			c-0.2-0.2-0.3-0.3-0.5-0.5c-0.2-0.2-0.3-0.3-0.5-0.5c-0.2-0.2-0.3-0.3-0.5-0.5c-0.2-0.2-0.3-0.3-0.5-0.5c-0.2-0.2-0.3-0.3-0.5-0.5
			c-0.2-0.2-0.3-0.3-0.5-0.5c-4.4-4.5-9.4-8.2-14.9-11.1c-0.2,0-0.4,0-0.5,0c-0.2-0.1-0.4-0.2-0.6-0.3c0.3,0,0.5,0.1,0.8,0.1
			c-0.2-0.1-0.4-0.2-0.7-0.3c-0.2,0-0.3,0-0.5,0c-0.2-0.1-0.4-0.2-0.7-0.3c0.2,0,0.4,0,0.6,0c-0.1-0.1-0.3-0.1-0.4-0.2
			c-0.2,0-0.4,0-0.6,0c-0.3-0.1-0.5-0.2-0.8-0.3c0.2,0,0.4,0,0.6,0c-0.1-0.1-0.3-0.1-0.4-0.2c-0.2,0-0.4,0-0.6,0
			c-0.2-0.1-0.5-0.2-0.7-0.3c0.2,0,0.4,0,0.6,0c-0.1-0.1-0.2-0.1-0.4-0.2c-0.2,0-0.4,0-0.6,0c-0.2-0.1-0.4-0.2-0.7-0.3
			c0.2,0,0.4-0.1,0.5-0.1c-0.1-0.1-0.3-0.1-0.4-0.2c-0.2,0-0.4,0-0.7,0.1c-0.2-0.1-0.4-0.1-0.6-0.2c0.2,0,0.4-0.1,0.6-0.1
			c-0.2-0.1-0.3-0.1-0.5-0.2c-0.2,0-0.4,0-0.6,0.1c-0.1,0-0.3-0.1-0.4-0.2c0.2,0,0.3-0.1,0.5-0.1c-0.2-0.1-0.4-0.1-0.6-0.2
			c-0.2,0-0.4,0.1-0.6,0.1c-0.1,0-0.2-0.1-0.3-0.1c0.2-0.1,0.3-0.1,0.5-0.2c-0.2-0.1-0.5-0.2-0.7-0.2c-0.2,0-0.4,0.1-0.6,0.2
			c-0.1,0-0.1,0-0.2-0.1c0.2-0.1,0.3-0.1,0.5-0.2c-0.3-0.1-0.5-0.2-0.8-0.2c-0.2,0.1-0.4,0.1-0.6,0.2c0,0-0.1,0-0.1,0
			c0.2-0.1,0.3-0.1,0.5-0.2c-0.3-0.1-0.6-0.2-0.9-0.3c-0.2,0.1-0.4,0.1-0.6,0.2c0,0,0,0-0.1,0c0.2-0.1,0.3-0.2,0.5-0.2
			c-0.3-0.1-0.6-0.2-0.9-0.3c0,0,0,0-0.1,0c-0.1,0.1-0.3,0.1-0.4,0.2c0,0,0,0,0,0c0.2-0.1,0.3-0.2,0.5-0.3c-0.3-0.1-0.6-0.2-0.9-0.2
			c-0.1,0.1-0.2,0.1-0.3,0.2c0,0,0,0,0,0c0.1-0.1,0.2-0.1,0.3-0.2c-0.2-0.1-0.5-0.1-0.7-0.2c0,0,0,0,0,0s-0.1,0-0.1-0.1c0,0,0,0,0,0
			c0,0,0,0,0,0c-0.1-0.1-0.2-0.2-0.4-0.3c0,0,0.1-0.1,0.1-0.1s-0.1,0-0.1-0.1c0,0,0,0,0,0c0,0,0,0,0,0c-0.1-0.1-0.2-0.2-0.4-0.3
			c0,0,0.1-0.1,0.1-0.1s-0.1,0-0.1-0.1c0,0,0,0,0,0c0,0,0,0,0,0c-0.1-0.1-0.2-0.2-0.4-0.3c0,0,0.1-0.1,0.1-0.1s-0.1,0-0.1-0.1
			c0,0,0,0,0,0c0,0,0,0,0,0c-0.1-0.1-0.2-0.2-0.4-0.3c0,0,0.1-0.1,0.1-0.1s-0.1,0-0.1-0.1c0,0,0,0,0,0c0,0,0,0,0,0
			c-0.1-0.1-0.2-0.2-0.4-0.3c0,0,0.1-0.1,0.1-0.1s-0.1,0-0.1-0.1c0,0,0,0,0,0c0,0,0,0,0,0c-0.1-0.1-0.2-0.2-0.4-0.3
			c0,0,0.1-0.1,0.1-0.1s-0.1,0-0.1-0.1c0,0,0,0,0,0c0,0,0,0,0,0c-0.1-0.1-0.2-0.2-0.4-0.3c0,0,0.1-0.1,0.1-0.1s-0.1,0-0.1-0.1
			c0,0,0,0,0,0c0,0,0,0,0,0c-0.1-0.1-0.2-0.2-0.4-0.3c0,0,0.1-0.1,0.1-0.1s-0.1,0-0.1-0.1c0,0,0,0,0,0c0,0,0,0,0,0
			c-0.1-0.1-0.2-0.2-0.4-0.3c0,0,0.1-0.1,0.1-0.1s-0.1,0-0.1-0.1c0,0,0,0,0,0c0,0,0,0,0,0c-0.1-0.1-0.2-0.2-0.4-0.3
			c0,0,0.1-0.1,0.1-0.1s-0.1,0-0.1-0.1c0,0,0,0,0,0c0,0,0,0,0,0c-0.1-0.1-0.2-0.2-0.4-0.3c0,0,0.1-0.1,0.1-0.1s-0.1,0-0.1-0.1
			c0,0,0,0,0,0c0,0,0,0,0,0c-0.1-0.1-0.2-0.2-0.4-0.3c0,0,0.1-0.1,0.1-0.1s-0.1,0-0.1-0.1c0,0,0,0,0,0c0,0,0,0,0,0
			c-0.1-0.1-0.2-0.2-0.4-0.3c0,0,0.1-0.1,0.1-0.1s-0.1,0-0.1-0.1c0,0,0,0,0,0c0,0,0,0,0,0c-0.1-0.1-0.2-0.2-0.4-0.3
			c0,0,0.1-0.1,0.1-0.1s-0.1,0-0.1-0.1c0,0,0,0,0,0c0,0,0,0,0,0c-0.1-0.1-0.2-0.2-0.4-0.3c0,0,0.1-0.1,0.1-0.1s-0.1,0-0.1-0.1
			c0,0,0,0,0,0c0,0,0,0,0,0c-0.1-0.1-0.2-0.2-0.4-0.3c0,0,0.1-0.1,0.1-0.1s-0.1,0-0.1-0.1c0,0,0,0,0,0c0,0,0,0,0,0
			c-0.1-0.1-0.2-0.2-0.4-0.3c0,0,0.1-0.1,0.1-0.1s-0.1,0-0.1-0.1c0,0,0,0,0,0c0,0,0,0,0,0c-0.1-0.1-0.2-0.2-0.4-0.3
			c0,0,0.1-0.1,0.1-0.1s-0.1,0-0.1-0.1c0,0,0,0,0,0c0,0,0,0,0,0c-0.1-0.1-0.2-0.2-0.4-0.3c0,0,0.1-0.1,0.1-0.1s-0.1,0-0.1-0.1
			c0,0,0,0,0,0c0,0,0,0,0,0c-0.1-0.1-0.2-0.2-0.4-0.3c0,0,0.1-0.1,0.1-0.1s-0.1,0-0.1-0.1c0,0,0,0,0,0c0,0,0,0,0,0
			c-0.1-0.1-0.2-0.2-0.4-0.3c0,0,0.1-0.1,0.1-0.1s-0.1,0-0.1-0.1c0,0,0,0,0,0c0,0,0,0,0,0c-0.1-0.1-0.2-0.2-0.4-0.3
			c0,0,0.1-0.1,0.1-0.1s-0.1,0-0.1-0.1c0,0,0,0,0,0c0,0,0,0,0,0c-0.1-0.1-0.2-0.2-0.4-0.3c0,0,0.1-0.1,0.1-0.1s-0.1,0-0.1-0.1
			c0,0,0,0,0,0c0,0,0,0,0,0c-0.1-0.1-0.2-0.2-0.4-0.3c0,0,0.1-0.1,0.1-0.1s-0.1,0-0.1-0.1c0,0,0,0,0,0c0,0,0,0,0,0
			c-0.1-0.1-0.2-0.2-0.4-0.3c0,0,0.1-0.1,0.1-0.1s-0.1,0-0.1-0.1c0,0,0,0,0,0c0,0,0,0,0,0c-0.1-0.1-0.2-0.2-0.4-0.3
			c0,0,0.1-0.1,0.1-0.1s-0.1,0-0.1-0.1c0,0,0,0,0,0c0,0,0,0,0,0c-0.1-0.1-0.2-0.2-0.4-0.3c0,0,0.1-0.1,0.1-0.1s-0.1,0-0.1-0.1
			c0,0,0,0,0,0c0,0,0,0,0,0c-0.1-0.1-0.2-0.2-0.4-0.3c0,0,0.1-0.1,0.1-0.1s-0.1,0-0.1-0.1c0,0,0,0,0,0c0,0,0,0,0,0
			c-0.1-0.1-0.2-0.2-0.4-0.3c0,0,0.1-0.1,0.1-0.1s-0.1,0-0.1-0.1c0,0,0,0,0,0c0,0,0,0,0,0c-0.1-0.1-0.2-0.2-0.4-0.3
			c0,0,0.1-0.1,0.1-0.1s-0.1,0-0.1-0.1c0,0,0,0,0,0c0,0,0,0,0,0c-0.1-0.1-0.2-0.2-0.4-0.3c0,0,0.1-0.1,0.1-0.1s-0.1,0-0.1-0.1
			c0,0,0,0,0,0c0,0,0,0,0,0c-0.1-0.1-0.2-0.2-0.4-0.3c0,0,0.1-0.1,0.1-0.1s-0.1,0-0.1-0.1c0,0,0,0,0,0c0,0,0,0,0,0
			c-0.1-0.1-0.2-0.2-0.4-0.3c0,0,0.1-0.1,0.1-0.1s-0.1,0-0.1-0.1c0,0,0,0,0,0c0,0,0,0,0,0c-0.1-0.1-0.2-0.2-0.4-0.3
			c0,0,0.1-0.1,0.1-0.1s-0.1,0-0.1-0.1c0,0,0,0,0,0c0,0,0,0,0,0c-0.1-0.1-0.2-0.2-0.4-0.3c0,0,0.1-0.1,0.1-0.1s-0.1,0-0.1-0.1
			c0,0,0,0,0,0c0,0,0,0,0,0c-0.1-0.1-0.2-0.2-0.4-0.3c0,0,0.1-0.1,0.1-0.1s-0.1,0-0.1-0.1c0,0,0,0,0,0c0,0,0,0,0,0
			c-0.1-0.1-0.2-0.2-0.4-0.3c0,0,0.1-0.1,0.1-0.1s-0.1,0-0.1-0.1c0,0,0,0,0,0c0,0,0,0,0,0c-0.1-0.1-0.2-0.2-0.4-0.3
			c0,0,0.1-0.1,0.1-0.1s-0.1,0-0.1-0.1c0,0,0,0,0,0c0,0,0,0,0,0c-0.1-0.1-0.2-0.2-0.4-0.3c0,0,0.1-0.1,0.1-0.1s-0.1,0-0.1-0.1
			c0,0,0,0,0,0c0,0,0,0,0,0c-0.1-0.1-0.2-0.2-0.4-0.3c0,0,0.1-0.1,0.1-0.1s-0.2-0.2-0.6-0.4c0,0,0.1-0.1,0.1-0.1s-0.2-0.2-0.6-0.4
			c0,0,0.1-0.1,0.1-0.1s-0.2-0.2-0.6-0.4c0,0,0.1-0.1,0.1-0.1s-0.2-0.2-0.6-0.4c0,0,0.1-0.1,0.1-0.1S274.4-74.5,256.5-73
			c-17.9,1.5-31.9,9-31.2,16.8c0.2,1.8,1.1,3.5,2.7,4.9c0.2,0.2,0.3,0.3,0.5,0.5c0.2,0.2,0.3,0.3,0.5,0.5c0.2,0.2,0.3,0.3,0.5,0.5
			c0.2,0.2,0.3,0.3,0.5,0.5c0.2,0.2,0.3,0.3,0.5,0.5c0.2,0.2,0.3,0.3,0.5,0.5c0.2,0.2,0.3,0.3,0.5,0.5c0.2,0.2,0.3,0.3,0.5,0.5
			c0.2,0.2,0.3,0.3,0.5,0.5c0.2,0.2,0.3,0.3,0.5,0.5c0.2,0.2,0.3,0.3,0.5,0.5c0.2,0.2,0.3,0.3,0.5,0.5c0.2,0.2,0.3,0.3,0.5,0.5
			c0.2,0.2,0.3,0.3,0.5,0.5c0.2,0.2,0.3,0.3,0.5,0.5c0.2,0.2,0.3,0.3,0.5,0.5c0.2,0.2,0.3,0.3,0.5,0.5c0.2,0.2,0.3,0.3,0.5,0.5
			c0.2,0.2,0.3,0.3,0.5,0.5c0.2,0.2,0.3,0.3,0.5,0.5c0.2,0.2,0.3,0.3,0.5,0.5c0.2,0.2,0.3,0.3,0.5,0.5c0.2,0.2,0.3,0.3,0.5,0.5
			c0.2,0.2,0.3,0.3,0.5,0.5c0.2,0.2,0.3,0.3,0.5,0.5c0.2,0.2,0.3,0.3,0.5,0.5c0,0,0,0.1,0.1,0.1c-25.2,8.4-43.5,34.1-43.5,64.6
			c0,19.9,7.9,37.8,20.4,50.2c0.2,0.2,0.3,0.3,0.5,0.5c0.2,0.2,0.3,0.3,0.5,0.5c0.2,0.2,0.3,0.3,0.5,0.5c0.2,0.2,0.3,0.3,0.5,0.5
			c0.2,0.2,0.3,0.3,0.5,0.5c0.2,0.2,0.3,0.3,0.5,0.5c0.2,0.2,0.3,0.3,0.5,0.5c0.2,0.2,0.3,0.3,0.5,0.5c0.2,0.2,0.3,0.3,0.5,0.5
			c0.2,0.2,0.3,0.3,0.5,0.5c0.2,0.2,0.3,0.3,0.5,0.5c0.2,0.2,0.3,0.3,0.5,0.5c0.2,0.2,0.3,0.3,0.5,0.5c0.2,0.2,0.3,0.3,0.5,0.5
			c0.2,0.2,0.3,0.3,0.5,0.5c0.2,0.2,0.3,0.3,0.5,0.5c0.2,0.2,0.3,0.3,0.5,0.5c0.2,0.2,0.3,0.3,0.5,0.5c0.2,0.2,0.3,0.3,0.5,0.5
			c0.2,0.2,0.3,0.3,0.5,0.5c0.2,0.2,0.3,0.3,0.5,0.5c0.2,0.2,0.3,0.3,0.5,0.5c0.2,0.2,0.3,0.3,0.5,0.5c0.2,0.2,0.3,0.3,0.5,0.5
			c0.2,0.2,0.3,0.3,0.5,0.5c0.2,0.2,0.3,0.3,0.5,0.5c0.2,0.2,0.3,0.3,0.5,0.5c0.2,0.2,0.3,0.3,0.5,0.5c0.2,0.2,0.3,0.3,0.5,0.5
			c0.2,0.2,0.3,0.3,0.5,0.5c0.2,0.2,0.3,0.3,0.5,0.5c0.2,0.2,0.3,0.3,0.5,0.5c0.2,0.2,0.3,0.3,0.5,0.5c0.2,0.2,0.3,0.3,0.5,0.5
			c0.2,0.2,0.3,0.3,0.5,0.5c0.2,0.2,0.3,0.3,0.5,0.5c0.2,0.2,0.3,0.3,0.5,0.5c0.2,0.2,0.3,0.3,0.5,0.5c0.2,0.2,0.3,0.3,0.5,0.5
			c0.2,0.2,0.3,0.3,0.5,0.5c0.2,0.2,0.3,0.3,0.5,0.5c0.2,0.2,0.3,0.3,0.5,0.5c0.2,0.2,0.3,0.3,0.5,0.5c0.2,0.2,0.3,0.3,0.5,0.5
			c0.2,0.2,0.3,0.3,0.5,0.5c0.2,0.2,0.3,0.3,0.5,0.5c0.2,0.2,0.3,0.3,0.5,0.5c0.2,0.2,0.3,0.3,0.5,0.5c0.2,0.2,0.3,0.3,0.5,0.5
			c0.2,0.2,0.3,0.3,0.5,0.5c0.2,0.2,0.3,0.3,0.5,0.5c0.2,0.2,0.3,0.3,0.5,0.5c0.2,0.2,0.3,0.3,0.5,0.5c0.2,0.2,0.3,0.3,0.5,0.5
			c0.2,0.2,0.3,0.3,0.5,0.5c0.2,0.2,0.3,0.3,0.5,0.5c0.2,0.2,0.3,0.3,0.5,0.5c0.2,0.2,0.3,0.3,0.5,0.5c0.2,0.2,0.3,0.3,0.5,0.5
			c0.2,0.2,0.3,0.3,0.5,0.5c0.2,0.2,0.3,0.3,0.5,0.5c0.2,0.2,0.3,0.3,0.5,0.5c0.2,0.2,0.3,0.3,0.5,0.5c0.2,0.2,0.3,0.3,0.5,0.5
			c0.2,0.2,0.3,0.3,0.5,0.5c0.2,0.2,0.3,0.3,0.5,0.5c0.2,0.2,0.3,0.3,0.5,0.5c0.2,0.2,0.3,0.3,0.5,0.5c0.2,0.2,0.3,0.3,0.5,0.5
			c0.2,0.2,0.3,0.3,0.5,0.5c0.2,0.2,0.3,0.3,0.5,0.5c0.2,0.2,0.3,0.3,0.5,0.5c0.2,0.2,0.3,0.3,0.5,0.5c0.2,0.2,0.3,0.3,0.5,0.5
			c0.2,0.2,0.3,0.3,0.5,0.5c0.2,0.2,0.3,0.3,0.5,0.5c0.2,0.2,0.3,0.3,0.5,0.5c0.2,0.2,0.3,0.3,0.5,0.5c0.2,0.2,0.3,0.3,0.5,0.5
			c0.2,0.2,0.3,0.3,0.5,0.5c0.2,0.2,0.3,0.3,0.5,0.5c0.2,0.2,0.3,0.3,0.5,0.5c0.2,0.2,0.3,0.3,0.5,0.5c0.2,0.2,0.3,0.3,0.5,0.5
			c0.2,0.2,0.3,0.3,0.5,0.5c0.2,0.2,0.3,0.3,0.5,0.5c0.2,0.2,0.3,0.3,0.5,0.5c0.2,0.2,0.3,0.3,0.5,0.5c0.2,0.2,0.3,0.3,0.5,0.5
			c0.2,0.2,0.3,0.3,0.5,0.5c0.2,0.2,0.3,0.3,0.5,0.5c0.2,0.2,0.3,0.3,0.5,0.5c0.2,0.2,0.3,0.3,0.5,0.5c0.2,0.2,0.3,0.3,0.5,0.5
			c0.2,0.2,0.3,0.3,0.5,0.5c0.2,0.2,0.3,0.3,0.5,0.5c0.2,0.2,0.3,0.3,0.5,0.5c0.2,0.2,0.3,0.3,0.5,0.5c0.2,0.2,0.3,0.3,0.5,0.5
			c0.2,0.2,0.3,0.3,0.5,0.5c0.2,0.2,0.3,0.3,0.5,0.5c0.2,0.2,0.3,0.3,0.5,0.5c0.2,0.2,0.3,0.3,0.5,0.5c0.2,0.2,0.3,0.3,0.5,0.5
			c0.2,0.2,0.3,0.3,0.5,0.5c0.2,0.2,0.3,0.3,0.5,0.5c0.2,0.2,0.3,0.3,0.5,0.5c0.2,0.2,0.3,0.3,0.5,0.5c0.2,0.2,0.3,0.3,0.5,0.5
			c0.2,0.2,0.3,0.3,0.5,0.5c0.2,0.2,0.3,0.3,0.5,0.5c0.2,0.2,0.3,0.3,0.5,0.5c0.2,0.2,0.3,0.3,0.5,0.5c0.2,0.2,0.3,0.3,0.5,0.5
			c0.2,0.2,0.3,0.3,0.5,0.5c0.2,0.2,0.3,0.3,0.5,0.5c0.2,0.2,0.3,0.3,0.5,0.5c0.2,0.2,0.3,0.3,0.5,0.5c0.2,0.2,0.3,0.3,0.5,0.5
			c0.2,0.2,0.3,0.3,0.5,0.5c0.2,0.2,0.3,0.3,0.5,0.5c0.2,0.2,0.3,0.3,0.5,0.5c0.2,0.2,0.3,0.3,0.5,0.5c0.2,0.2,0.3,0.3,0.5,0.5
			c0.2,0.2,0.3,0.3,0.5,0.5c0.2,0.2,0.3,0.3,0.5,0.5c0.2,0.2,0.3,0.3,0.5,0.5c0.2,0.2,0.3,0.3,0.5,0.5c0.2,0.2,0.3,0.3,0.5,0.5
			c0.2,0.2,0.3,0.3,0.5,0.5c0.2,0.2,0.3,0.3,0.5,0.5c0.2,0.2,0.3,0.3,0.5,0.5c0.2,0.2,0.3,0.3,0.5,0.5c0.2,0.2,0.3,0.3,0.5,0.5
			c0.2,0.2,0.3,0.3,0.5,0.5c0.2,0.2,0.3,0.3,0.5,0.5c0.2,0.2,0.3,0.3,0.5,0.5c0.2,0.2,0.3,0.3,0.5,0.5c0.2,0.2,0.3,0.3,0.5,0.5
			c0.2,0.2,0.3,0.3,0.5,0.5c0.2,0.2,0.3,0.3,0.5,0.5c0.2,0.2,0.3,0.3,0.5,0.5c0.2,0.2,0.3,0.3,0.5,0.5c0.2,0.2,0.3,0.3,0.5,0.5
			c0.2,0.2,0.3,0.3,0.5,0.5c0.2,0.2,0.3,0.3,0.5,0.5c0.2,0.2,0.3,0.3,0.5,0.5c0.2,0.2,0.3,0.3,0.5,0.5c0.2,0.2,0.3,0.3,0.5,0.5
			c0.2,0.2,0.3,0.3,0.5,0.5c0.2,0.2,0.3,0.3,0.5,0.5c0.2,0.2,0.3,0.3,0.5,0.5c0.2,0.2,0.3,0.3,0.5,0.5c0.2,0.2,0.3,0.3,0.5,0.5
			c0.2,0.2,0.3,0.3,0.5,0.5c0.2,0.2,0.3,0.3,0.5,0.5c0.2,0.2,0.3,0.3,0.5,0.5c0.2,0.2,0.3,0.3,0.5,0.5c0.2,0.2,0.3,0.3,0.5,0.5
			c0.2,0.2,0.3,0.3,0.5,0.5c0.2,0.2,0.3,0.3,0.5,0.5c0.2,0.2,0.3,0.3,0.5,0.5c0.2,0.2,0.3,0.3,0.5,0.5c0.2,0.2,0.3,0.3,0.5,0.5
			c0.2,0.2,0.3,0.3,0.5,0.5c0.2,0.2,0.3,0.3,0.5,0.5c0.2,0.2,0.3,0.3,0.5,0.5c0.2,0.2,0.3,0.3,0.5,0.5c0.2,0.2,0.3,0.3,0.5,0.5
			c0.2,0.2,0.3,0.3,0.5,0.5c0.2,0.2,0.3,0.3,0.5,0.5c0.2,0.2,0.3,0.3,0.5,0.5c0.2,0.2,0.3,0.3,0.5,0.5c0.2,0.2,0.3,0.3,0.5,0.5
			c0.2,0.2,0.3,0.3,0.5,0.5c0.2,0.2,0.3,0.3,0.5,0.5c0.2,0.2,0.3,0.3,0.5,0.5c0.2,0.2,0.3,0.3,0.5,0.5c0.2,0.2,0.3,0.3,0.5,0.5
			c0.2,0.2,0.3,0.3,0.5,0.5c0.2,0.2,0.3,0.3,0.5,0.5c0.2,0.2,0.3,0.3,0.5,0.5c0.2,0.2,0.3,0.3,0.5,0.5c0.2,0.2,0.3,0.3,0.5,0.5
			c0.2,0.2,0.3,0.3,0.5,0.5c0.2,0.2,0.3,0.3,0.5,0.5c0.2,0.2,0.3,0.3,0.5,0.5c0.2,0.2,0.3,0.3,0.5,0.5c0.2,0.2,0.3,0.3,0.5,0.5
			c0.2,0.2,0.3,0.3,0.5,0.5c0.2,0.2,0.3,0.3,0.5,0.5c0.2,0.2,0.3,0.3,0.5,0.5c0.2,0.2,0.3,0.3,0.5,0.5c0.2,0.2,0.3,0.3,0.5,0.5
			c0.2,0.2,0.3,0.3,0.5,0.5c0.2,0.2,0.3,0.3,0.5,0.5c0.2,0.2,0.3,0.3,0.5,0.5c0.2,0.2,0.3,0.3,0.5,0.5c0.2,0.2,0.3,0.3,0.5,0.5
			c11,11.1,25.6,17.8,41.6,17.8c7,0,13.7-1.3,20-3.7c6.3,2.4,13,3.7,20,3.7c34,0,61.5-30.2,61.5-67.5
			C460.5,106.5,452.6,88.6,440.1,76.2z M326.6-33.9c-0.1,0-0.3,0-0.4,0c-0.1-0.1-0.3-0.1-0.4-0.2C326.1-34,326.3-34,326.6-33.9z"/>
		<path fill="#FFE9C5" d="M308.7-44.1c2.1-0.9,4.5-0.9,6.9-0.8c-2.6-0.9-5.3-0.2-7.6,1.2c0,0,0,0,0,0
			C308.2-43.9,308.4-44,308.7-44.1z"/>
		<path fill="#FFE9C5" d="M308.2-44.6c2.1-0.9,4.5-0.9,6.9-0.8c-2.6-0.9-5.3-0.2-7.6,1.2c0,0,0,0,0,0
			C307.7-44.4,307.9-44.5,308.2-44.6z"/>
		<path fill="#FFE9C5" d="M309.2-43.6c2.1-0.9,4.5-0.9,6.9-0.8c-2.6-0.9-5.3-0.2-7.6,1.2c0,0,0,0,0,0
			C308.7-43.4,308.9-43.5,309.2-43.6z"/>
		<path fill="#FFE9C5" d="M307.7-45.1c2.1-0.9,4.5-0.9,6.9-0.8c-2.6-0.9-5.3-0.2-7.6,1.2c0,0,0,0,0,0
			C307.2-44.9,307.4-45,307.7-45.1z"/>
		<path fill="#FFE9C5" d="M309.7-43.1c2.1-0.9,4.5-0.9,6.9-0.8c-2.6-0.9-5.3-0.2-7.6,1.2c0,0,0,0,0,0
			C309.2-42.9,309.4-43,309.7-43.1z"/>
		<path fill="#FFE9C5" d="M307.2-45.6c2.1-0.9,4.5-0.9,6.9-0.8c-2.6-0.9-5.3-0.2-7.6,1.2c0,0,0,0,0,0
			C306.7-45.4,306.9-45.5,307.2-45.6z"/>
		<path fill="#FFE9C5" d="M312.7-40.1c2.1-0.9,4.5-0.9,6.9-0.8c-2.6-0.9-5.3-0.2-7.6,1.2c0,0,0,0,0,0
			C312.2-39.9,312.4-40,312.7-40.1z"/>
		<path fill="#FFE9C5" d="M311.7-41.1c2.1-0.9,4.5-0.9,6.9-0.8c-2.6-0.9-5.3-0.2-7.6,1.2c0,0,0,0,0,0
			C311.2-40.9,311.4-41,311.7-41.1z"/>
		<path fill="#FFE9C5" d="M312.2-40.6c2.1-0.9,4.5-0.9,6.9-0.8c-2.6-0.9-5.3-0.2-7.6,1.2c0,0,0,0,0,0
			C311.7-40.4,311.9-40.5,312.2-40.6z"/>
		<path fill="#FFE9C5" d="M313.2-39.6c2.1-0.9,4.5-0.9,6.9-0.8c-2.5-0.8-5.1-0.2-7.4,1c0,0,0,0,0,0
			C312.9-39.5,313.1-39.5,313.2-39.6z"/>
		<path fill="#FFE9C5" d="M311.2-41.6c2.1-0.9,4.5-0.9,6.9-0.8c-2.6-0.9-5.3-0.2-7.6,1.2c0,0,0,0,0,0
			C310.7-41.4,310.9-41.5,311.2-41.6z"/>
		<path fill="#FFE9C5" d="M310.2-42.6c2.1-0.9,4.5-0.9,6.9-0.8c-2.6-0.9-5.3-0.2-7.6,1.2c0,0,0,0,0,0
			C309.7-42.4,309.9-42.5,310.2-42.6z"/>
		<path fill="#FFE9C5" d="M310.7-42.1c2.1-0.9,4.5-0.9,6.9-0.8c-2.6-0.9-5.3-0.2-7.6,1.2c0,0,0,0,0,0
			C310.2-41.9,310.4-42,310.7-42.1z"/>
	</g>
</g>
<g>
	<ellipse id="XMLID_12_" fill="#FEC76F" cx="259.5" cy="26.4" rx="61.5" ry="67.5"/>
	<ellipse id="XMLID_10_" fill="#FBAA20" cx="299.5" cy="26.4" rx="61.5" ry="67.5"/>
	<circle id="XMLID_8_" fill="#FFDA9E" cx="321.5" cy="77.4" r="5.5"/>
	
		<ellipse id="XMLID_7_" transform="matrix(7.750409e-02 -0.997 0.997 7.750409e-02 242.7632 397.1708)" fill="#FFDA9E" cx="336" cy="67.4" rx="5.5" ry="4.5"/>
	<circle id="XMLID_6_" fill="#FFDA9E" cx="325.7" cy="57.3" r="2.7"/>
	<ellipse id="XMLID_5_" fill="#FFDA9E" cx="346.5" cy="52.3" rx="3.5" ry="3.7"/>
	<circle id="XMLID_4_" fill="#FFDA9E" cx="336" cy="38.9" r="2"/>
	<path id="XMLID_11_" fill="#78793B" d="M284.3-41.7c1-4,2.5-7.8,4.8-11.3c2.9-4.4,6.2-6,11.5-5.9c1.7,0,2.1-2.5,0.4-2.9
		c-10.9-2.7-17.7,10.5-20.7,18.9c-0.7,1.8,2.2,2.6,2.9,0.8c2.4-6.7,8.2-19,17-16.8c0.1-1,0.3-2,0.4-2.9c-5.2-0.1-9.1,0.9-12.4,5.1
		c-3.3,4.2-5.5,9.2-6.8,14.3C280.9-40.6,283.8-39.8,284.3-41.7L284.3-41.7z"/>
	<path id="XMLID_9_" fill="#78793B" d="M290.6-61.6c0,0-13.3,15.3-31.2,16.8c-17.9,1.5-32.9-3.6-33.6-11.4
		C225.1-64,239.1-71.5,257-73C274.9-74.5,290.6-61.6,290.6-61.6z"/>
</g>
</svg>
